<?xml version="1.0" standalone="no"?>
<!DOCTYPE svg PUBLIC "-//W3C//DTD SVG 20010904//EN"
 "http://www.w3.org/TR/2001/REC-SVG-20010904/DTD/svg10.dtd">
<svg version="1.0" xmlns="http://www.w3.org/2000/svg"
 width="1200.000000pt" height="1200.000000pt" viewBox="0 0 1200.000000 1200.000000"
 preserveAspectRatio="xMidYMid meet">
<metadata>
Created by potrace 1.14, written by Peter Selinger 2001-2017
</metadata>
<g transform="translate(0.000000,1200.000000) scale(0.100000,-0.100000)"
fill="#000000" stroke="none">
<path d="M6283 9848 c-52 -19 -99 -56 -127 -99 -17 -26 -24 -53 -31 -114 -7
-65 -16 -132 -20 -162 -3 -18 -7 -56 -10 -85 -3 -29 -8 -69 -10 -88 -3 -19 -7
-51 -9 -70 -2 -19 -7 -60 -11 -90 -4 -30 -8 -65 -9 -77 -1 -12 -5 -25 -8 -28
-5 -5 -1254 -9 -1493 -5 -12 0 -38 16 -59 36 l-38 36 -38 -37 -38 -38 -93 -1
-93 -1 -1 -97 -1 -97 -72 -73 c-39 -40 -124 -128 -189 -195 -286 -294 -591
-608 -750 -771 -95 -98 -173 -180 -173 -184 0 -18 -28 -6 -47 20 l-20 28 52
105 c29 58 56 117 60 130 7 24 92 197 230 469 41 80 86 177 101 215 15 39 33
77 40 86 8 8 14 19 14 23 0 11 73 155 108 214 18 29 32 55 32 57 0 3 27 59 60
126 32 67 58 124 57 128 -1 3 31 72 71 153 39 80 72 150 72 155 0 5 -24 21
-52 35 -117 59 -253 122 -257 119 -2 -1 -7 1 -10 6 -3 4 -22 16 -43 25 l-36
17 -50 -97 c-130 -249 -202 -396 -203 -411 -1 -9 -36 -83 -79 -166 -149 -288
-230 -453 -233 -473 -2 -11 -7 -26 -13 -34 -5 -7 -25 -47 -44 -88 -19 -41 -52
-106 -74 -145 -54 -98 -177 -346 -181 -365 -2 -8 -37 -86 -79 -172 -42 -86
-76 -161 -76 -167 0 -5 9 -13 20 -16 11 -3 20 -10 20 -15 0 -11 -139 -150
-149 -150 -13 1 -276 455 -285 491 -7 30 -5 44 8 64 18 28 87 75 110 75 8 0
16 3 18 8 4 8 101 57 107 53 2 -1 7 1 10 6 3 5 36 25 73 43 38 19 68 41 68 48
0 10 -25 68 -35 80 -1 1 -31 -13 -66 -31 -35 -19 -111 -58 -169 -88 -58 -30
-106 -57 -108 -61 -2 -5 -8 -8 -13 -8 -6 0 -15 -5 -22 -10 -7 -6 -21 -18 -33
-28 -41 -34 -76 -109 -76 -161 1 -44 12 -67 133 -267 73 -121 139 -227 147
-236 8 -10 12 -18 8 -18 -4 0 2 -12 13 -26 25 -32 26 -39 4 -62 -26 -26 -163
-199 -207 -261 -79 -112 -135 -222 -143 -280 -5 -33 -1 -41 31 -69 39 -34 52
-38 75 -23 11 7 26 1 52 -20 20 -16 41 -29 47 -29 6 0 12 -4 14 -8 2 -4 48
-39 103 -77 99 -68 207 -143 377 -260 l87 -60 3 -1165 c2 -641 7 -1178 11
-1194 12 -44 57 -137 86 -176 31 -41 68 -75 125 -112 22 -15 46 -32 51 -36 18
-15 235 -122 235 -116 0 3 13 -4 29 -15 16 -12 32 -21 35 -21 5 0 121 -56 506
-242 96 -47 231 -113 300 -146 69 -33 231 -111 360 -174 l235 -114 -1 -166
c-1 -91 -4 -170 -8 -176 -3 -6 -3 -13 1 -15 5 -3 7 -36 6 -74 -1 -37 -2 -83
-2 -100 l-1 -33 -65 0 c-59 0 -66 -2 -76 -24 -8 -16 -8 -29 0 -43 7 -14 7 -23
-1 -31 -16 -16 0 -61 27 -74 20 -9 25 -19 27 -57 2 -25 -3 -55 -9 -67 -13 -20
-20 -216 -9 -260 12 -53 40 -76 98 -79 14 -1 34 -8 44 -16 9 -8 25 -15 36 -15
10 -1 24 -2 31 -3 17 -1 15 -60 -3 -71 -7 -5 -14 -17 -15 -27 -1 -10 -4 -25
-6 -33 -3 -12 10 -16 65 -18 72 -3 98 7 78 30 -11 14 -12 18 -12 44 0 8 -4 12
-10 9 -5 -3 -10 0 -11 7 0 7 -2 23 -3 35 -2 13 4 23 13 25 14 3 784 2 834 -1
12 -1 17 -9 17 -30 0 -16 -5 -31 -11 -33 -13 -4 -39 -75 -31 -83 3 -3 38 -5
79 -5 58 0 73 3 73 15 0 8 -4 15 -9 15 -4 0 -6 11 -3 25 3 18 0 25 -12 25 -9
0 -16 7 -17 15 -4 58 -4 59 26 59 17 1 37 5 45 11 8 5 33 11 54 12 49 2 80 18
96 49 15 27 18 266 4 286 -5 7 -9 33 -8 58 2 67 3 72 13 66 14 -9 45 33 46 62
0 17 5 27 15 27 8 0 13 -7 12 -15 -11 -44 -9 -53 8 -70 11 -11 26 -20 33 -20
15 0 15 -80 -1 -130 -6 -19 -10 -85 -9 -146 3 -146 27 -184 118 -184 17 0 28
-4 25 -9 -7 -11 18 -21 55 -21 28 0 29 -2 27 -35 -1 -19 -8 -37 -15 -39 -7 -3
-13 -14 -13 -25 0 -11 -5 -23 -10 -26 -24 -15 6 -25 76 -25 59 0 74 3 74 15 0
8 -5 15 -11 15 -8 0 -8 4 1 14 9 12 7 17 -9 28 -14 9 -21 23 -21 45 l0 33 78
0 c97 1 694 1 743 0 31 0 37 -4 42 -25 3 -17 -1 -30 -12 -38 -9 -7 -17 -17
-18 -22 -1 -6 -5 -23 -8 -38 l-7 -27 80 0 80 0 -12 32 c-6 18 -19 44 -29 58
-9 14 -13 26 -8 28 6 2 7 10 4 18 -4 10 4 14 30 14 19 0 37 5 39 11 2 6 27 13
56 14 91 5 109 36 107 190 -1 61 -5 128 -10 150 -17 82 -13 108 20 125 23 12
30 22 31 48 1 17 -3 32 -9 32 -5 0 -4 6 2 14 17 20 3 64 -22 72 -12 4 -48 6
-79 5 -50 -2 -58 0 -59 16 -1 10 -2 141 -3 292 -1 211 2 278 12 287 7 7 54 33
105 58 141 68 350 167 372 177 11 5 27 13 35 18 8 6 40 21 70 35 30 13 127 59
215 101 193 93 330 158 492 236 67 32 177 85 246 118 69 34 128 61 132 61 3 0
21 11 39 25 18 14 36 25 40 25 4 0 29 17 56 38 77 60 130 143 161 252 18 60
19 119 19 940 1 481 1 912 0 958 l-1 83 33 -14 c18 -8 94 -37 168 -66 187 -73
193 -75 305 -117 97 -36 259 -112 321 -150 56 -35 163 -119 164 -129 0 -5 12
-21 26 -34 l25 -25 24 30 c14 16 34 49 46 74 11 25 45 86 73 135 107 184 236
432 236 454 0 4 -26 16 -57 25 -32 10 -65 20 -73 23 -8 3 -19 7 -25 8 -5 0
-17 4 -25 8 -8 3 -49 16 -90 27 -78 23 -143 42 -197 58 -17 6 -34 8 -37 4 -3
-3 -6 0 -6 5 0 6 -8 10 -17 8 -10 -1 -24 3 -32 9 -8 6 -16 10 -18 9 -1 -2 -4
-3 -5 -2 -2 0 -10 2 -18 4 -27 7 -55 14 -108 29 -29 8 -56 15 -60 15 -4 1 -25
6 -47 12 -22 6 -47 13 -55 15 -8 2 -33 8 -55 14 -22 6 -60 14 -85 19 -25 5
-97 23 -160 40 -130 36 -160 43 -177 44 -7 0 -13 4 -13 9 0 5 -3 7 -8 4 -15
-9 -72 23 -72 41 0 10 -9 38 -20 62 l-20 44 32 29 c100 92 122 114 158 163 43
59 91 148 116 216 16 44 18 54 32 119 9 46 9 264 -1 315 -22 118 -78 240 -159
350 -37 50 -158 163 -189 177 -16 7 -29 16 -29 20 0 5 -5 8 -11 8 -6 0 -22 9
-36 20 -14 11 -34 20 -43 20 -10 0 -22 6 -28 13 -8 9 -1 21 30 47 87 75 150
142 164 175 30 74 23 149 -19 184 -9 7 -38 15 -64 16 -45 3 -48 5 -51 34 -4
37 -43 71 -83 71 -16 0 -29 5 -29 10 0 22 -65 50 -108 48 -24 -1 -45 -5 -48
-9 -3 -5 -11 -6 -19 -2 -8 3 -15 0 -15 -6 0 -6 -6 -11 -13 -11 -7 0 -30 -16
-52 -35 -32 -27 -47 -34 -73 -30 -26 3 -36 -1 -48 -20 -9 -13 -13 -28 -10 -33
5 -9 -1 -16 -49 -59 -38 -35 -90 -68 -120 -78 -16 -5 -34 -20 -40 -32 -6 -11
-36 -42 -67 -67 -49 -39 -58 -43 -73 -32 -11 8 -16 20 -12 30 4 9 2 16 -3 16
-5 0 -7 7 -4 15 4 8 1 22 -6 30 -9 10 -10 31 -6 64 4 31 3 52 -4 56 -6 3 -8 9
-6 13 2 4 7 35 11 69 7 67 9 81 19 158 8 60 18 145 31 265 3 25 7 59 9 75 2
17 7 59 11 95 4 36 11 86 15 112 4 26 6 61 6 77 -1 17 2 31 5 31 7 0 6 -3 13
115 4 75 1 96 -15 130 -52 107 -117 137 -349 165 -96 12 -238 30 -315 40 -155
20 -276 20 -300 0 -8 -7 -15 -9 -15 -6 0 10 -60 -33 -84 -59 -25 -27 -59 -103
-51 -115 3 -6 2 -10 -2 -10 -5 0 -9 -17 -9 -37 -1 -21 -5 -65 -9 -98 -4 -33
-9 -73 -11 -90 -1 -16 -3 -30 -4 -30 -1 0 -3 -16 -5 -35 -8 -82 -15 -138 -20
-175 -8 -53 -13 -89 -19 -150 -3 -27 -8 -75 -11 -105 -4 -30 -8 -68 -10 -85
-2 -16 -4 -31 -5 -32 -2 -2 -3 -17 -4 -35 -1 -26 -6 -33 -28 -39 -39 -10 -39
-10 -24 99 2 15 7 56 10 92 4 36 9 78 12 93 3 16 7 50 9 75 3 26 7 65 10 87 3
22 8 60 11 85 3 25 7 63 10 85 3 22 6 58 8 81 2 22 6 53 10 70 3 16 8 58 12
94 3 36 8 79 9 95 5 39 -11 97 -32 123 -10 12 -25 30 -33 40 -21 27 -99 70
-137 76 -73 13 -90 15 -143 22 -30 3 -66 7 -80 9 -38 4 -131 15 -170 20 -19 3
-53 7 -75 9 -22 3 -65 8 -95 12 -110 13 -167 11 -217 -8z m449 -1811 c4 -6 2
-20 -4 -31 -6 -12 -11 -23 -10 -26 1 -3 -15 -54 -34 -115 -20 -60 -37 -117
-39 -125 -2 -8 -4 -15 -5 -15 -1 0 -4 -11 -6 -25 -13 -70 -19 -20 -18 148 1
103 2 192 3 199 1 15 103 6 113 -10z m1418 -1289 c0 -4 -6 -5 -14 -2 -8 3 -12
12 -9 21 5 12 7 12 14 1 5 -7 9 -16 9 -20z"/>
</g>
</svg>
